<?xml version="1.0" encoding="utf-8"?>
<!-- Generator: Adobe Illustrator 15.1.0, SVG Export Plug-In  -->
<!DOCTYPE svg PUBLIC "-//W3C//DTD SVG 1.1//EN" "http://www.w3.org/Graphics/SVG/1.1/DTD/svg11.dtd" [
	<!ENTITY ns_flows "http://ns.adobe.com/Flows/1.0/">
]>
<svg version="1.1"
	 xmlns="http://www.w3.org/2000/svg" xmlns:xlink="http://www.w3.org/1999/xlink" xmlns:a="http://ns.adobe.com/AdobeSVGViewerExtensions/3.0/"
	 x="0px" y="0px" width="600px" height="600px" viewBox="0 0 600 600" enable-background="new 0 0 600 600" xml:space="preserve">
<defs>
</defs>
<rect display="none" fill="#F2F2F2" width="600" height="600"/>
<path fill="#FF1D25" d="M598.354,200H570v-33h0.201c0-7-5.405-12.264-12.103-12.271c-6.719,0.008-12.099,5.36-12.099,12.061V200h-36
	v-33h-0.273c0-7-5.667-12.262-12.368-12.262c-6.715,0-12.358,5.351-12.358,12.047V200h-27.549c-1.172,0-2.451,0.757-2.451,1.934
	v19.473c0,1.172,1.279,2.594,2.451,2.594h5.74c-0.07,0.004-0.191,0.03-0.191,0.191V249v3.715v8.249
	c0,9.714,4.806,18.832,12.735,24.458l27.681,19.492c1.996,1.693,3.584,3.117,6.584,4.334V363h9v82c0,11.028-8.975,20-20.002,20H380
	V228v-7V20c0-11-9.002-20-20.002-20h-320C28.998,0,20,9,20,20v201v7v312H0v60h400v-60h-20v-55h118.998
	C521.053,485,539,467.056,539,445v-82h7v-53.75c2-1.218,4.437-2.642,6.438-4.335l27.493-19.492
	c5.455-3.873,9.361-9.425,11.281-15.669c0.012-0.046,0.235-0.082,0.245-0.129c0.842-2.783,1.542-5.685,1.542-8.66v-8.249V249
	v-24.809c0-0.161-0.225-0.188-0.352-0.191h5.707c1.168,0,1.645-1.422,1.645-2.594v-19.473C600,200.757,599.531,200,598.354,200z"/>
<circle fill="#FFFFFF" cx="117.997" cy="273.537" r="19.354"/>
<circle fill="#FFFFFF" cx="199.998" cy="273.537" r="19.354"/>
<rect x="20" y="201" fill="#FFFFFF" width="360" height="20"/>
<polygon fill="#FFFFFF" points="233.947,315.844 128.832,430.432 201.283,429.698 151.047,528.407 274.338,400.351 202.063,400.971 
	"/>
<path fill="#FFFFFF" d="M320.998,53h-100.41l-60.055,60.057c-1.172,1.172-2.707,1.758-4.242,1.758s-3.072-0.586-4.242-1.758
	c-2.344-2.343-2.344-6.142,0-8.484L203.619,53H167.59l-25.604,25.604c-1.172,1.172-2.707,1.758-4.242,1.758
	s-3.072-0.586-4.242-1.757c-2.344-2.344-2.344-6.143-0.002-8.485L150.619,53H78.998C76.797,53,75,54.8,75,57v92
	c0,2.2,1.797,4,3.998,4h242c2.199,0,4.002-1.8,4.002-4V57C325,54.8,323.197,53,320.998,53z"/>
<circle fill="#FFFFFF" cx="281.998" cy="273.537" r="19.354"/>
</svg>
