<?xml version="1.0" encoding="utf-8"?>
<!-- Generator: Adobe Illustrator 15.1.0, SVG Export Plug-In  -->
<!DOCTYPE svg PUBLIC "-//W3C//DTD SVG 1.1//EN" "http://www.w3.org/Graphics/SVG/1.1/DTD/svg11.dtd" [
	<!ENTITY ns_flows "http://ns.adobe.com/Flows/1.0/">
]>
<svg version="1.1"
	 xmlns="http://www.w3.org/2000/svg" xmlns:xlink="http://www.w3.org/1999/xlink" xmlns:a="http://ns.adobe.com/AdobeSVGViewerExtensions/3.0/"
	 x="0px" y="0px" width="600px" height="600px" viewBox="0 0 600 600" enable-background="new 0 0 600 600" xml:space="preserve">
<defs>
</defs>
<rect display="none" fill="#F2F2F2" width="600" height="600"/>
<path fill="#009245" d="M125,561.695V586c0,7.732,6.266,14,13.998,14h22c7.731,0,14.002-6.268,14.002-14v-24h-45.002
	C128.32,562,127,561.89,125,561.695z"/>
<path fill="#009245" d="M425,562v24c0,7.732,6.266,14,13.998,14h22c7.732,0,14.002-6.268,14.002-14v-24.305
	c-2,0.194-3.326,0.305-5.002,0.305H425z"/>
<path fill="#009245" d="M268.177,523c-1.231,0-3.177,0.345-4.177,0.911V586c0,7.732,6.266,14,13.998,14h43
	c7.731,0,14.002-6.268,14.002-14v-62.425c-1-0.361-2.231-0.575-3.182-0.575H268.177z"/>
<path fill="#009245" d="M519,300.032c0-0.007,0-0.013,0-0.019l-8.14-270.027C510.362,13.494,496.498,0,479.998,0h-359
	c-16.5,0-30.45,13.492-31,29.983l-8.914,267.412L79.998,330l2.615,28.28c0.02,0.528,0.052,1.062,0.101,1.597l14.567,160.246
	C98.775,536.556,113.498,550,129.998,550h91H221c0-0.01,0-0.02,0-0.028l11.98-9.242l0.02-0.003v0.003l14.332-19.181
	c3.727-4.916,10.368-8.829,16.667-10.104c1.422-0.288,2.828-0.444,4.178-0.444h63.642c1.031,0,2.099,0.101,3.18,0.274
	c6.531,1.049,13.642,5.099,17.54,10.242L367,540.829v-0.02l0.02,0.02l11.98,9.154c0,0.005,0,0.011,0,0.017h-0.002h91
	c16.5,0,31.223-13.444,32.715-29.877l14.568-160.246c0.027-0.288,0.039-0.573,0.057-0.859L519.952,330L519,300.032z"/>
<circle fill="#FFFFFF" cx="299.998" cy="341.728" r="31.453"/>
<path fill="#FFFFFF" d="M484.965,136.677l-2.889-80.689C481.684,44.994,472.361,36,461.361,36H139.498
	c-11,0-20.354,8.993-20.787,19.984l-3.177,80.695c-0.433,10.991-1.179,28.976-1.657,39.965l-3.008,68.969
	c-0.479,10.989,7.759,22.533,18.307,25.652c0,0,76.868,22.734,170.822,22.734c93.953,0,170.82-22.734,170.82-22.734
	c10.549-3.119,18.822-14.665,18.387-25.656l-2.732-68.961C486.037,165.657,485.357,147.67,484.965,136.677z"/>
<path fill="#FFFFFF" d="M379,520.076c0-7.06-3.033-16.385-7.029-21.659l-19.33-25.876C348.086,466.532,339.135,462,331.818,462
	h-63.642c-7.259,0-16.165,4.532-20.741,10.57l-19.385,25.911c-4.021,5.307-7.051,14.59-7.051,21.595v28.954
	c0,0.319,0.02,0.613,0.034,0.915l11.946-9.216l0.02-0.003v-20.65c0-4.32,2.199-11.158,4.638-14.376l19.384-25.911
	c1.583-2.089,4.725-4.094,7.662-5.105c1.246-0.43,2.457-0.684,3.493-0.684h63.642c0.722,0,1.526,0.123,2.366,0.335
	c3.269,0.825,7.093,3.08,8.866,5.421l19.331,25.875c2.416,3.189,4.618,10.075,4.618,14.445v20.733l0.02,0.02l11.957,9.136
	c0.014-0.303,0.023-0.612,0.023-0.935V520.076z"/>
<circle fill="#FFFFFF" cx="299.998" cy="341.728" r="31.453"/>
<path fill="#FFFFFF" d="M484.965,136.677l-2.889-80.689C481.684,44.994,472.361,36,461.361,36H139.498
	c-11,0-20.354,8.993-20.787,19.984l-3.177,80.695c-0.433,10.991-1.179,28.976-1.657,39.965l-3.008,68.969
	c-0.479,10.989,7.759,22.533,18.307,25.652c0,0,76.868,22.734,170.822,22.734c93.953,0,170.82-22.734,170.82-22.734
	c10.549-3.119,18.822-14.665,18.387-25.656l-2.732-68.961C486.037,165.657,485.357,147.67,484.965,136.677z"/>
<path fill="#FFFFFF" d="M444.998,390.1l-153.335,3.063c-2.749,0.055-7.249,0.046-9.997-0.02l-126.67-3.023
	c-2.749-0.065-4.846,2.126-4.659,4.869l1.821,26.762c0.187,2.743,2.589,5.043,5.338,5.109l124.17,3.02
	c2.748,0.066,7.248,0.075,9.997,0.02l150.835-3.059c2.75-0.056,5.152-2.347,5.339-5.09l1.821-26.762
	C449.845,392.245,447.748,390.045,444.998,390.1z"/>
<path fill="#009245" d="M221,550h0.036c-0.001-0.018-0.001-0.037-0.002-0.055L221,549.972C221,549.98,221,549.99,221,550z"/>
<path fill="#009245" d="M378.977,549.965c0,0.012,0,0.023-0.001,0.035h0.022H379c0-0.006,0-0.012,0-0.017L378.977,549.965z"/>
</svg>
