<?xml version="1.0" encoding="utf-8"?>
<!-- Generator: Adobe Illustrator 15.1.0, SVG Export Plug-In  -->
<!DOCTYPE svg PUBLIC "-//W3C//DTD SVG 1.1//EN" "http://www.w3.org/Graphics/SVG/1.1/DTD/svg11.dtd" [
	<!ENTITY ns_flows "http://ns.adobe.com/Flows/1.0/">
]>
<svg version="1.1"
	 xmlns="http://www.w3.org/2000/svg" xmlns:xlink="http://www.w3.org/1999/xlink" xmlns:a="http://ns.adobe.com/AdobeSVGViewerExtensions/3.0/"
	 x="0px" y="0px" width="600px" height="600px" viewBox="0 0 600 600" enable-background="new 0 0 600 600" xml:space="preserve">
<defs>
</defs>
<rect display="none" fill="#F2F2F2" width="600" height="600"/>
<circle fill="none" cx="300" cy="341.728" r="31.453"/>
<path fill="none" d="M484.967,136.677l-2.888-80.689C481.686,44.994,472.363,36,461.363,36H139.5c-11,0-20.354,8.993-20.787,19.984
	l-3.176,80.695c-0.434,10.991-1.18,28.976-1.658,39.965l-3.008,68.969c-0.479,10.989,7.76,22.533,18.308,25.652
	c0,0,76.868,22.734,170.821,22.734s170.821-22.734,170.821-22.734c10.548-3.119,18.822-14.665,18.387-25.656l-2.733-68.961
	C486.039,165.657,485.36,147.67,484.967,136.677z"/>
<path fill="none" d="M445.001,390.1l-153.335,3.063c-2.75,0.055-7.249,0.046-9.998-0.02l-126.67-3.023
	c-2.748-0.065-4.846,2.126-4.658,4.869l1.82,26.762c0.188,2.743,2.59,5.043,5.338,5.109l124.17,3.02
	c2.749,0.066,7.248,0.075,9.998,0.02l150.835-3.059c2.749-0.056,5.151-2.347,5.339-5.09l1.82-26.762
	C449.848,392.245,447.75,390.045,445.001,390.1z"/>
<path fill="#FF1D25" d="M125,561.695V586c0,7.732,6.268,14,14,14h22c7.732,0,14-6.268,14-14v-24h-45
	C128.323,562,126.656,561.89,125,561.695z"/>
<path fill="#FF1D25" d="M425,562v24c0,7.732,6.268,14,14,14h22c7.732,0,14-6.268,14-14v-24.305c-1.655,0.194-3.323,0.305-5,0.305
	H425z"/>
<path fill="#FF1D25" d="M268.18,523c-1.232,0-2.697,0.345-4.18,0.911V586c0,7.732,6.268,14,14,14h43c7.732,0,14-6.268,14-14v-62.425
	c-1.134-0.361-2.229-0.575-3.18-0.575H268.18z"/>
<path fill="#FF1D25" d="M519,300.032c0-0.007,0-0.013,0-0.019l-8.138-270.027C510.363,13.494,496.5,0,480,0H121
	c-16.5,0-30.449,13.492-31,29.983l-8.913,267.412L80,330l2.615,28.28c0.02,0.528,0.053,1.062,0.102,1.597l14.566,160.246
	C98.777,536.556,113.5,550,130,550h91.039c-0.015-0.321-0.039-0.631-0.039-0.97v-28.954c0-7.005,3.031-16.288,7.053-21.595
	l19.385-25.911c4.576-6.038,13.483-10.57,20.742-10.57h63.641c7.316,0,16.269,4.532,20.822,10.541l19.33,25.876
	c3.996,5.274,7.027,14.6,7.027,21.659v28.954c0,0.334-0.008,0.656-0.021,0.97H470c16.5,0,31.223-13.444,32.716-29.877
	l14.568-160.246c0.026-0.288,0.038-0.573,0.056-0.859L519.954,330L519,300.032z M447.84,421.75c-0.188,2.743-2.59,5.034-5.339,5.09
	l-150.835,3.059c-2.75,0.056-7.249,0.047-9.998-0.02l-124.17-3.02c-2.748-0.066-5.15-2.366-5.338-5.109l-1.82-26.762
	c-0.188-2.743,1.91-4.935,4.658-4.869l126.67,3.023c2.749,0.065,7.248,0.074,9.998,0.02l153.335-3.063
	c2.749-0.055,4.847,2.146,4.659,4.889L447.84,421.75z M268.547,341.728c0-17.371,14.082-31.453,31.453-31.453
	s31.453,14.082,31.453,31.453S317.371,373.181,300,373.181S268.547,359.099,268.547,341.728z M470.821,271.266
	c0,0-76.868,22.734-170.821,22.734s-170.821-22.734-170.821-22.734c-10.548-3.119-18.786-14.663-18.308-25.652l3.008-68.969
	c0.479-10.989,1.225-28.974,1.658-39.965l3.176-80.695C119.146,44.993,128.5,36,139.5,36h321.863c11,0,20.322,8.994,20.716,19.987
	l2.888,80.689c0.394,10.993,1.072,28.98,1.508,39.972l2.733,68.961C489.644,256.601,481.369,268.146,470.821,271.266z"/>
<path fill="#FF1D25" d="M343.054,479.756c-1.774-2.341-5.599-4.596-8.866-5.421c-0.84-0.212-1.645-0.335-2.367-0.335H268.18
	c-1.037,0-2.248,0.254-3.494,0.684c-2.937,1.012-6.078,3.017-7.661,5.105L237.639,505.7c-2.438,3.218-4.639,10.056-4.639,14.376
	v20.653l14.334-19.181c3.727-4.916,10.368-8.829,16.666-10.104c1.423-0.288,2.829-0.444,4.18-0.444h63.641
	c1.032,0,2.1,0.101,3.18,0.274c6.531,1.049,13.641,5.099,17.539,10.242L367,540.829v-20.753c0-4.37-2.201-11.256-4.617-14.445
	L343.054,479.756z"/>
</svg>
