<?xml version="1.0" encoding="utf-8"?>
<!-- Generator: Adobe Illustrator 15.1.0, SVG Export Plug-In  -->
<!DOCTYPE svg PUBLIC "-//W3C//DTD SVG 1.1//EN" "http://www.w3.org/Graphics/SVG/1.1/DTD/svg11.dtd" [
	<!ENTITY ns_flows "http://ns.adobe.com/Flows/1.0/">
]>
<svg version="1.1"
	 xmlns="http://www.w3.org/2000/svg" xmlns:xlink="http://www.w3.org/1999/xlink" xmlns:a="http://ns.adobe.com/AdobeSVGViewerExtensions/3.0/"
	 x="0px" y="0px" width="600px" height="600px" viewBox="0 0 600 600" enable-background="new 0 0 600 600" xml:space="preserve">
<defs>
</defs>
<rect display="none" fill="#F2F2F2" width="600" height="600"/>
<path fill="#0071BC" d="M360,0H40C29,0,20,9,20,20v181h360V20C380,9,371,0,360,0z M325,149c0,2.2-1.8,4-4,4H79c-2.2,0-4-1.8-4-4V57
	c0-2.2,1.8-4,4-4h71.621l-17.118,17.119c-2.343,2.343-2.343,6.142,0.001,8.485c1.171,1.171,2.707,1.757,4.242,1.757
	s3.071-0.586,4.243-1.758L167.592,53h36.03l-51.571,51.572c-2.344,2.343-2.344,6.142,0,8.484c1.171,1.172,2.707,1.758,4.242,1.758
	s3.071-0.586,4.242-1.758L220.591,53H321c2.2,0,4,1.8,4,4V149z"/>
<path fill="#0071BC" d="M598.356,200H570v-33h0.203c0-7-5.405-12.264-12.103-12.271c-6.72,0.008-12.101,5.36-12.101,12.061V200h-36
	v-33h-0.271c0-7-5.667-12.262-12.368-12.262c-6.715,0-12.36,5.351-12.36,12.047V200h-27.546c-1.172,0-2.454,0.757-2.454,1.934
	v19.473c0,1.172,1.282,2.594,2.454,2.594h5.74c-0.071,0.004-0.194,0.03-0.194,0.191V249v3.715v8.249
	c0,9.714,4.807,18.832,12.736,24.458l27.681,19.492c1.996,1.693,3.583,3.117,6.583,4.334V363h9v82c0,11.028-8.972,20-20,20H380V221
	H20v319H0v60h400v-60h-20v-55h119c22.056,0,40-17.944,40-40v-82h7v-53.75c2-1.218,4.438-2.642,6.44-4.335l27.493-19.492
	c5.455-3.873,9.362-9.425,11.281-15.669c0.013-0.046,0.235-0.082,0.245-0.129c0.842-2.783,1.54-5.685,1.54-8.66v-8.249V249v-24.809
	c0-0.161-0.223-0.188-0.349-0.191h5.706c1.169,0,1.643-1.422,1.643-2.594v-19.473C600,200.757,599.533,200,598.356,200z
	 M200,254.183c10.689,0,19.354,8.665,19.354,19.354s-8.665,19.354-19.354,19.354s-19.354-8.665-19.354-19.354
	S189.311,254.183,200,254.183z M98.646,273.537c0-10.689,8.665-19.354,19.354-19.354s19.354,8.665,19.354,19.354
	s-8.665,19.354-19.354,19.354S98.646,284.227,98.646,273.537z M151.049,528.407l50.236-98.709l-72.45,0.733L233.95,315.844
	l-31.885,85.127l72.274-0.62L151.049,528.407z M282,292.892c-10.689,0-19.354-8.665-19.354-19.354s8.665-19.354,19.354-19.354
	s19.354,8.665,19.354,19.354S292.689,292.892,282,292.892z"/>
</svg>
